<svg xmlns="http://www.w3.org/2000/svg" width="16" height="20"><path d="M.277 3.844h15.41v15.098H.277zm0 0"/><path d="m3.793 7.965.313-.094v3.004c0 .219.191.402.422.402a.42.42 0 0 0 .422-.402V7.363c0-.109-.047-.215-.133-.293s-.199-.113-.312-.109a1.2 1.2 0 0 0-.301.059l-.676.219c-.191.07-.301.195-.301.367.008.129.078.246.188.316s.254.086.379.043zM7.98 6.938c-1.082 0-1.914.945-1.914 2.199 0 1.266.809 2.188 1.914 2.188 1.086 0 1.914-.957 1.914-2.211-.012-1.266-.805-2.176-1.914-2.176m0 3.602c-.672 0-1.035-.723-1.035-1.426 0-.691.352-1.391 1.035-1.391.664 0 1.035.723 1.035 1.414 0 .703-.359 1.402-1.035 1.402zm3.855-3.578a1.2 1.2 0 0 0-.316.059l-.66.219c-.18.07-.301.195-.301.367 0 .266.289.449.566.359l.301-.094v3.004c0 .219.191.402.422.402a.41.41 0 0 0 .422-.402V7.363c.012-.219-.184-.402-.434-.402zm-6.492 5.422c-1.094 0-1.914.953-1.914 2.207s.797 2.176 1.902 2.176c1.086 0 1.914-.953 1.914-2.207s-.805-2.176-1.902-2.176m0 3.602c-.684 0-1.047-.727-1.047-1.426 0-.691.363-1.395 1.035-1.395.664 0 1.023.727 1.023 1.426 0 .68-.348 1.395-1.012 1.395zm3.844-3.566q-.164.001-.316.043l-.66.219c-.191.07-.301.199-.301.383 0 .25.277.449.566.355l.301-.105v3.004a.42.42 0 0 0 .422.414.415.415 0 0 0 .422-.414V12.82c.012-.23-.172-.402-.434-.402zm2.648 0q-.164.001-.316.043l-.66.219c-.18.07-.301.199-.301.383 0 .25.289.449.566.355l.301-.105v3.004a.42.42 0 0 0 .422.414.42.42 0 0 0 .422-.414V12.82c.012-.23-.184-.402-.434-.402zm0 0" fill="#FFF"/><path d="M.531.77h11.52v3.832H.531zm0 0"/><path d="m11.754.68 4.223 3.391-1.824 1.914L9.93 2.594zm0 0"/><path d="M15.676 3.383 12.883.746a1.1 1.1 0 0 0-.758-.297H1.059C.473.453 0 .91 0 1.473v17.055c0 .563.473 1.02 1.059 1.023H14.93c.59 0 1.07-.457 1.07-1.023V4.109a1.02 1.02 0 0 0-.324-.727zm-.785.332h-2.359V1.496zm.039 15.066H1.059a.26.26 0 0 1-.266-.254V1.473c0-.137.121-.254.266-.254h10.668V4.11c0 .207.18.379.398.379h3.07v14.039a.26.26 0 0 1-.266.254zm0 0" fill="#7F7F7F"/></svg>
