<svg xmlns="http://www.w3.org/2000/svg" viewBox="0 0 16 16"><path style="stroke:none;fill-rule:nonzero;fill:#1c5bff;fill-opacity:1" d="M11 8c0 .695-.04 1.363-.102 2H5.105a19 19 0 0 1-.101-2q.001-1.043.101-2h5.793Q11 6.957 11 8m.898-2h3.848Q16 6.962 16 8q-.001 1.038-.254 2h-3.848a19.5 19.5 0 0 0 0-4m3.52-1h-3.645c-.312-1.996-.933-3.668-1.73-4.738A8.01 8.01 0 0 1 15.414 5Zm-4.66 0H5.242c.188-1.137.485-2.145.844-2.96.328-.735.691-1.27 1.047-1.61C7.48.102 7.773 0 8 0s.52.102.867.43c.356.34.719.875 1.047 1.61.363.812.656 1.82.844 2.96M4.227 5H.582A8.03 8.03 0 0 1 5.957.262C5.16 1.332 4.539 3.004 4.227 5M.254 6h3.848a19.5 19.5 0 0 0 0 4H.254A8 8 0 0 1 0 8q.001-1.038.254-2m5.832 7.957c-.363-.812-.656-1.82-.844-2.957h5.516c-.188 1.137-.485 2.145-.844 2.957-.328.738-.691 1.27-1.047 1.61-.347.331-.64.433-.867.433s-.52-.102-.867-.43c-.356-.34-.719-.875-1.047-1.61ZM4.226 11c.313 1.996.934 3.668 1.731 4.738A8.03 8.03 0 0 1 .582 11Zm11.192 0a8.03 8.03 0 0 1-5.371 4.738c.797-1.07 1.414-2.742 1.726-4.738h3.649Zm0 0"/></svg>