<svg style="color:#fff" xmlns="http://www.w3.org/2000/svg" viewBox="6 38 116 436"><!--! Font Awesome Free 6.1.1 by @fontawesome - https://fontawesome.com License - https://fontawesome.com/license/free (Icons: CC BY 4.0, Fonts: SIL OFL 1.1, Code: MIT License) Copyright 2022 Fonticons, Inc.--><path d="M64 360c30.93 0 56 25.1 56 56s-25.07 56-56 56-56-25.1-56-56 25.07-56 56-56m0-160c30.93 0 56 25.1 56 56s-25.07 56-56 56-56-25.1-56-56 25.07-56 56-56m0-48c-30.93 0-56-25.1-56-56 0-30.93 25.07-56 56-56s56 25.07 56 56c0 30.9-25.07 56-56 56" fill="#fff"/></svg>