<svg xmlns="http://www.w3.org/2000/svg" width="800" height="800"><path fill="#3b88c3" d="M66.668 400C66.668 584 216 733.332 400 733.332S733.332 584 733.332 400 584 66.668 400 66.668 66.668 216 66.668 400"/><path fill="#fff" d="M301 282.332a25 25 0 0 0-24.477-7.18 25 25 0 0 0-18.035 18.04 25 25 0 0 0 7.18 24.476L348 400l-82.332 82.332c-9.18 9.852-8.91 25.203.61 34.723 9.523 9.52 24.87 9.789 34.722.613l100-100c9.75-9.762 9.75-25.574 0-35.336Zm0 0"/><path fill="#fff" d="M434.332 282.332a25 25 0 0 0-24.477-7.18A25.001 25.001 0 0 0 399 317.668L481.332 400 399 482.332c-9.18 9.852-8.906 25.203.613 34.723s24.871 9.789 34.719.613l100-100c9.75-9.762 9.75-25.574 0-35.336Zm0 0"/></svg>